<?xml version="1.0" encoding="UTF-8" standalone="no"?>
<!DOCTYPE svg PUBLIC "-//W3C//DTD SVG 1.0//EN" "http://www.w3.org/TR/2001/PR-SVG-20010719/DTD/svg10.dtd">
<svg width="177cm" height="59cm" viewBox="-519 -121 3528 1178" xmlns="http://www.w3.org/2000/svg" xmlns:xlink="http://www.w3.org/1999/xlink">
  <g>
    <rect style="fill: #ffffff" x="-517.672" y="-5.0174" width="194.8" height="28"/>
    <rect style="fill: none; fill-opacity:0; stroke-width: 2; stroke: #000000" x="-517.672" y="-5.0174" width="194.8" height="28"/>
    <text font-size="16" style="fill: #000000;text-anchor:middle;font-family:sans-serif;font-style:normal;font-weight:700" x="-420.272" y="14.9826">Usuario</text>
    <rect style="fill: #ffffff" x="-517.672" y="22.9826" width="194.8" height="52"/>
    <rect style="fill: none; fill-opacity:0; stroke-width: 2; stroke: #000000" x="-517.672" y="22.9826" width="194.8" height="52"/>
    <text font-size="12.8" style="fill: #000000;text-anchor:start;font-family:monospace;font-style:normal;font-weight:normal" x="-514.672" y="36.1826">+nombreUsuario: string</text>
    <text font-size="12.8" style="fill: #000000;text-anchor:start;font-family:monospace;font-style:normal;font-weight:normal" x="-514.672" y="52.1826">+docUsuario: int</text>
    <text font-size="12.8" style="fill: #000000;text-anchor:start;font-family:monospace;font-style:normal;font-weight:normal" x="-514.672" y="68.1826">+permisosUsuario: string</text>
    <rect style="fill: #ffffff" x="-517.672" y="74.9826" width="194.8" height="52"/>
    <rect style="fill: none; fill-opacity:0; stroke-width: 2; stroke: #000000" x="-517.672" y="74.9826" width="194.8" height="52"/>
    <text font-size="12.8" style="fill: #000000;text-anchor:start;font-family:monospace;font-style:normal;font-weight:normal" x="-514.672" y="88.1826">+registrarUsuario()</text>
    <text font-size="12.8" style="fill: #000000;text-anchor:start;font-family:monospace;font-style:normal;font-weight:normal" x="-514.672" y="104.183">+consultarUsuario()</text>
    <text font-size="12.8" style="fill: #000000;text-anchor:start;font-family:monospace;font-style:normal;font-weight:normal" x="-514.672" y="120.183">+desactivarUsuario()</text>
  </g>
  <g>
    <rect style="fill: #ffffff" x="-1.672" y="-21.8336" width="248.7" height="28"/>
    <rect style="fill: none; fill-opacity:0; stroke-width: 2; stroke: #000000" x="-1.672" y="-21.8336" width="248.7" height="28"/>
    <text font-size="16" style="fill: #000000;text-anchor:middle;font-family:sans-serif;font-style:normal;font-weight:700" x="122.678" y="-1.8336">Jugador</text>
    <rect style="fill: #ffffff" x="-1.672" y="6.1664" width="248.7" height="164"/>
    <rect style="fill: none; fill-opacity:0; stroke-width: 2; stroke: #000000" x="-1.672" y="6.1664" width="248.7" height="164"/>
    <text font-size="12.8" style="fill: #000000;text-anchor:start;font-family:monospace;font-style:normal;font-weight:normal" x="1.328" y="19.3664">+nombreJugador: string</text>
    <text font-size="12.8" style="fill: #000000;text-anchor:start;font-family:monospace;font-style:normal;font-weight:normal" x="1.328" y="35.3664">+docJugador: int</text>
    <text font-size="12.8" style="fill: #000000;text-anchor:start;font-family:monospace;font-style:normal;font-weight:normal" x="1.328" y="51.3664">+categoria: int</text>
    <text font-size="12.8" style="fill: #000000;text-anchor:start;font-family:monospace;font-style:normal;font-weight:normal" x="1.328" y="67.3664">+fechaNacimientoJugador: int</text>
    <text font-size="12.8" style="fill: #000000;text-anchor:start;font-family:monospace;font-style:normal;font-weight:normal" x="1.328" y="83.3664">+estaturaJugador: float</text>
    <text font-size="12.8" style="fill: #000000;text-anchor:start;font-family:monospace;font-style:normal;font-weight:normal" x="1.328" y="99.3664">+pesoJugador: float</text>
    <text font-size="12.8" style="fill: #000000;text-anchor:start;font-family:monospace;font-style:normal;font-weight:normal" x="1.328" y="115.366">+telefonoJugador: int</text>
    <text font-size="12.8" style="fill: #000000;text-anchor:start;font-family:monospace;font-style:normal;font-weight:normal" x="1.328" y="131.366">+partidosJugados: int</text>
    <text font-size="12.8" style="fill: #000000;text-anchor:start;font-family:monospace;font-style:normal;font-weight:normal" x="1.328" y="147.366">+partidos: list</text>
    <text font-size="12.8" style="fill: #000000;text-anchor:start;font-family:monospace;font-style:normal;font-weight:normal" x="1.328" y="163.366">+rendimientoPartidos: list</text>
    <rect style="fill: #ffffff" x="-1.672" y="170.166" width="248.7" height="116"/>
    <rect style="fill: none; fill-opacity:0; stroke-width: 2; stroke: #000000" x="-1.672" y="170.166" width="248.7" height="116"/>
    <text font-size="12.8" style="fill: #000000;text-anchor:start;font-family:monospace;font-style:normal;font-weight:normal" x="1.328" y="183.366">+registrarJugador()</text>
    <text font-size="12.8" style="fill: #000000;text-anchor:start;font-family:monospace;font-style:normal;font-weight:normal" x="1.328" y="199.366">+consultarJugador()</text>
    <text font-size="12.8" style="fill: #000000;text-anchor:start;font-family:monospace;font-style:normal;font-weight:normal" x="1.328" y="215.366">+desactivarJugador()</text>
    <text font-size="12.8" style="fill: #000000;text-anchor:start;font-family:monospace;font-style:normal;font-weight:normal" x="1.328" y="231.366">+consultarPartidosJugados()</text>
    <text font-size="12.8" style="fill: #000000;text-anchor:start;font-family:monospace;font-style:normal;font-weight:normal" x="1.328" y="247.366">+consultarRendimiento()</text>
    <text font-size="12.8" style="fill: #000000;text-anchor:start;font-family:monospace;font-style:normal;font-weight:normal" x="1.328" y="263.366">+consultarDatosfisicosJugador()</text>
    <text font-size="12.8" style="fill: #000000;text-anchor:start;font-family:monospace;font-style:normal;font-weight:normal" x="1.328" y="279.366">+consultarCategoria()</text>
  </g>
  <g>
    <rect style="fill: #ffffff" x="-5.772" y="305.982" width="187.1" height="28"/>
    <rect style="fill: none; fill-opacity:0; stroke-width: 2; stroke: #000000" x="-5.772" y="305.982" width="187.1" height="28"/>
    <text font-size="16" style="fill: #000000;text-anchor:middle;font-family:sans-serif;font-style:normal;font-weight:700" x="87.778" y="325.982">Profesor</text>
    <rect style="fill: #ffffff" x="-5.772" y="333.982" width="187.1" height="52"/>
    <rect style="fill: none; fill-opacity:0; stroke-width: 2; stroke: #000000" x="-5.772" y="333.982" width="187.1" height="52"/>
    <text font-size="12.8" style="fill: #000000;text-anchor:start;font-family:monospace;font-style:normal;font-weight:normal" x="-2.772" y="347.182">+nombreProfesor: string</text>
    <text font-size="12.8" style="fill: #000000;text-anchor:start;font-family:monospace;font-style:normal;font-weight:normal" x="-2.772" y="363.182">+docProfesor: int</text>
    <text font-size="12.8" style="fill: #000000;text-anchor:start;font-family:monospace;font-style:normal;font-weight:normal" x="-2.772" y="379.182">+telefonoProfesor: int</text>
    <rect style="fill: #ffffff" x="-5.772" y="385.982" width="187.1" height="52"/>
    <rect style="fill: none; fill-opacity:0; stroke-width: 2; stroke: #000000" x="-5.772" y="385.982" width="187.1" height="52"/>
    <text font-size="12.8" style="fill: #000000;text-anchor:start;font-family:monospace;font-style:normal;font-weight:normal" x="-2.772" y="399.182">+registrarProfesor()</text>
    <text font-size="12.8" style="fill: #000000;text-anchor:start;font-family:monospace;font-style:normal;font-weight:normal" x="-2.772" y="415.182">+consultarProfesor()</text>
    <text font-size="12.8" style="fill: #000000;text-anchor:start;font-family:monospace;font-style:normal;font-weight:normal" x="-2.772" y="431.182">+desactivarProfesor()</text>
  </g>
  <g>
    <polyline style="fill: none; fill-opacity:0; stroke-width: 2; stroke: #000000" points="-322.872,64.9826 -162.272,64.9826 -162.272,112.166 -1.672,112.166 "/>
    <text font-size="12.7998" style="fill: #000000;text-anchor:start;font-family:monospace;font-style:normal;font-weight:normal" x="-160.272" y="84.5745"></text>
    <polygon style="fill: #000000" points="-158.272,84.5745 -158.272,76.5745 -150.272,80.5745 "/>
    <text font-size="12.7998" style="fill: #000000;text-anchor:start;font-family:monospace;font-style:normal;font-weight:normal" x="-318.872" y="60.9826">1</text>
    <text font-size="12.7998" style="fill: #000000;text-anchor:end;font-family:monospace;font-style:normal;font-weight:normal" x="-5.672" y="108.166">1...n</text>
  </g>
  <g>
    <polyline style="fill: none; fill-opacity:0; stroke-width: 2; stroke: #000000" points="-322.872,64.9826 -164.322,64.9826 -164.322,375.982 -5.772,375.982 "/>
    <text font-size="12.7998" style="fill: #000000;text-anchor:start;font-family:monospace;font-style:normal;font-weight:normal" x="-162.322" y="216.482"></text>
    <polygon style="fill: #000000" points="-160.322,216.482 -160.322,208.482 -152.322,212.482 "/>
    <text font-size="12.7998" style="fill: #000000;text-anchor:start;font-family:monospace;font-style:normal;font-weight:normal" x="-318.872" y="60.9826">1</text>
    <text font-size="12.7998" style="fill: #000000;text-anchor:end;font-family:monospace;font-style:normal;font-weight:normal" x="-9.772" y="371.982">1..n</text>
  </g>
  <g>
    <rect style="fill: #ffffff" x="379.035" y="42.402" width="187.1" height="28"/>
    <rect style="fill: none; fill-opacity:0; stroke-width: 2; stroke: #000000" x="379.035" y="42.402" width="187.1" height="28"/>
    <text font-size="16" style="fill: #000000;text-anchor:middle;font-family:sans-serif;font-style:normal;font-weight:700" x="472.585" y="62.402">Partido</text>
    <rect style="fill: #ffffff" x="379.035" y="70.402" width="187.1" height="84"/>
    <rect style="fill: none; fill-opacity:0; stroke-width: 2; stroke: #000000" x="379.035" y="70.402" width="187.1" height="84"/>
    <text font-size="12.8" style="fill: #000000;text-anchor:start;font-family:monospace;font-style:normal;font-weight:normal" x="382.035" y="83.602">+idPartido: string</text>
    <text font-size="12.8" style="fill: #000000;text-anchor:start;font-family:monospace;font-style:normal;font-weight:normal" x="382.035" y="99.602">+fechaPartido: string</text>
    <text font-size="12.8" style="fill: #000000;text-anchor:start;font-family:monospace;font-style:normal;font-weight:normal" x="382.035" y="115.602">+categoria: int</text>
    <text font-size="12.8" style="fill: #000000;text-anchor:start;font-family:monospace;font-style:normal;font-weight:normal" x="382.035" y="131.602">+jugadoresPartido: list</text>
    <text font-size="12.8" style="fill: #000000;text-anchor:start;font-family:monospace;font-style:normal;font-weight:normal" x="382.035" y="147.602">+tipoPartido: string</text>
    <rect style="fill: #ffffff" x="379.035" y="154.402" width="187.1" height="52"/>
    <rect style="fill: none; fill-opacity:0; stroke-width: 2; stroke: #000000" x="379.035" y="154.402" width="187.1" height="52"/>
    <text font-size="12.8" style="fill: #000000;text-anchor:start;font-family:monospace;font-style:normal;font-weight:normal" x="382.035" y="167.602">+registrarPartido()</text>
    <text font-size="12.8" style="fill: #000000;text-anchor:start;font-family:monospace;font-style:normal;font-weight:normal" x="382.035" y="183.602">+consultarPartido()</text>
    <text font-size="12.8" style="fill: #000000;text-anchor:start;font-family:monospace;font-style:normal;font-weight:normal" x="382.035" y="199.602">+filtrarJugadores()</text>
  </g>
  <g>
    <polyline style="fill: none; fill-opacity:0; stroke-width: 2; stroke: #000000" points="378.029,124.402 313.032,124.402 313.032,132.166 248.036,132.166 "/>
    <text font-size="12.7998" style="fill: #000000;text-anchor:start;font-family:monospace;font-style:normal;font-weight:normal" x="315.032" y="124.284"></text>
    <polygon style="fill: #000000" points="317.032,124.284 317.032,116.284 325.032,120.284 "/>
    <text font-size="12.7998" style="fill: #000000;text-anchor:end;font-family:monospace;font-style:normal;font-weight:normal" x="374.029" y="120.402">1...n</text>
    <text font-size="12.7998" style="fill: #000000;text-anchor:start;font-family:monospace;font-style:normal;font-weight:normal" x="252.036" y="128.166">1</text>
  </g>
  <text font-size="28.2222" style="fill: #000000;text-anchor:start;font-family:sans-serif;font-style:normal;font-weight:normal" x="20.503" y="-92.5504">
    <tspan x="20.503" y="-92.5504">Diagrama De Clases</tspan>
  </text>
  <text font-size="28.2222" style="fill: #000000;text-anchor:start;font-family:sans-serif;font-style:normal;font-weight:normal" x="1798.42" y="89.8676">
    <tspan x="1798.42" y="89.8676">EML</tspan>
  </text>
  <g>
    <rect style="fill: #ffffff" x="1601.78" y="131.116" width="81.9" height="36"/>
    <rect style="fill: none; fill-opacity:0; stroke-width: 2; stroke: #000000" x="1601.78" y="131.116" width="81.9" height="36"/>
    <text font-size="12.8" style="fill: #000000;text-anchor:middle;font-family:monospace;font-style:normal;font-weight:normal" x="1642.73" y="152.316">Usuario</text>
  </g>
  <g>
    <rect style="fill: #ffffff" x="1557.73" y="477.236" width="81.9" height="36"/>
    <rect style="fill: none; fill-opacity:0; stroke-width: 2; stroke: #000000" x="1557.73" y="477.236" width="81.9" height="36"/>
    <text font-size="12.8" style="fill: #000000;text-anchor:middle;font-family:monospace;font-style:normal;font-weight:normal" x="1598.68" y="498.436">Jugador</text>
  </g>
  <g>
    <rect style="fill: #ffffff" x="1556.08" y="870.926" width="89.6" height="36"/>
    <rect style="fill: none; fill-opacity:0; stroke-width: 2; stroke: #000000" x="1556.08" y="870.926" width="89.6" height="36"/>
    <text font-size="12.8" style="fill: #000000;text-anchor:middle;font-family:monospace;font-style:normal;font-weight:normal" x="1600.88" y="892.126">Profesor</text>
  </g>
  <g>
    <rect style="fill: #ffffff" x="2685.5" y="213.372" width="81.9" height="36"/>
    <rect style="fill: none; fill-opacity:0; stroke-width: 2; stroke: #000000" x="2685.5" y="213.372" width="81.9" height="36"/>
    <text font-size="12.8" style="fill: #000000;text-anchor:middle;font-family:monospace;font-style:normal;font-weight:normal" x="2726.45" y="234.572">Partido</text>
  </g>
  <g>
    <ellipse style="fill: #ffffff" cx="1407.52" cy="298.892" rx="70.05" ry="18"/>
    <ellipse style="fill: none; fill-opacity:0; stroke-width: 2; stroke: #000000" cx="1407.52" cy="298.892" rx="70.05" ry="18"/>
    <text font-size="12.8" style="fill: #000000;text-anchor:middle;font-family:monospace;font-style:normal;font-weight:normal" x="1407.52" y="302.092">nombreUsuario</text>
  </g>
  <g>
    <ellipse style="fill: #ffffff" cx="1588.91" cy="320.288" rx="77.75" ry="18"/>
    <ellipse style="fill: none; fill-opacity:0; stroke-width: 2; stroke: #000000" cx="1588.91" cy="320.288" rx="77.75" ry="18"/>
    <ellipse style="fill: none; fill-opacity:0; stroke-width: 2; stroke: #000000" cx="1588.91" cy="320.288" rx="69.75" ry="14"/>
    <text font-size="12.8" style="fill: #000000;text-anchor:middle;font-family:monospace;font-style:normal;font-weight:normal" x="1588.91" y="323.488">permisosUsuario</text>
  </g>
  <g>
    <ellipse style="fill: #ffffff" cx="1767.26" cy="311.478" rx="58.5" ry="18"/>
    <ellipse style="fill: none; fill-opacity:0; stroke-width: 2; stroke: #000000" cx="1767.26" cy="311.478" rx="58.5" ry="18"/>
    <text font-size="12.8" style="fill: #000000;text-anchor:middle;font-family:monospace;font-style:normal;font-weight:normal" x="1767.26" y="314.678">DocUsuario</text>
    <line style="fill: none; fill-opacity:0; stroke-width: 2; stroke: #000000" x1="1728.76" y1="319.478" x2="1805.76" y2="319.478"/>
  </g>
  <g>
    <polyline style="fill: none; fill-opacity:0; stroke-width: 2; stroke: #000000" points="1642.73,168.125 1642.73,234.702 1588.91,234.702 1588.91,291.543 "/>
    <polygon style="fill: #000000" points="1588.91,299.043 1583.91,289.043 1588.91,291.543 1593.91,289.043 "/>
    <polygon style="fill: none; fill-opacity:0; stroke-width: 2; stroke: #000000" points="1588.91,299.043 1583.91,289.043 1588.91,291.543 1593.91,289.043 "/>
  </g>
  <g>
    <polyline style="fill: none; fill-opacity:0; stroke-width: 2; stroke: #000000" points="1642.73,168.125 1642.73,224.004 1407.52,224.004 1407.52,270.147 "/>
    <polygon style="fill: #000000" points="1407.52,277.647 1402.52,267.647 1407.52,270.147 1412.52,267.647 "/>
    <polygon style="fill: none; fill-opacity:0; stroke-width: 2; stroke: #000000" points="1407.52,277.647 1402.52,267.647 1407.52,270.147 1412.52,267.647 "/>
  </g>
  <g>
    <polyline style="fill: none; fill-opacity:0; stroke-width: 2; stroke: #000000" points="1642.73,168.125 1642.73,230.297 1767.26,230.297 1767.26,282.733 "/>
    <polygon style="fill: #000000" points="1767.26,290.233 1762.26,280.233 1767.26,282.733 1772.26,280.233 "/>
    <polygon style="fill: none; fill-opacity:0; stroke-width: 2; stroke: #000000" points="1767.26,290.233 1762.26,280.233 1767.26,282.733 1772.26,280.233 "/>
  </g>
  <g>
    <ellipse style="fill: #ffffff" cx="1103.81" cy="724.046" rx="70.05" ry="18"/>
    <ellipse style="fill: none; fill-opacity:0; stroke-width: 2; stroke: #000000" cx="1103.81" cy="724.046" rx="70.05" ry="18"/>
    <text font-size="12.8" style="fill: #000000;text-anchor:middle;font-family:monospace;font-style:normal;font-weight:normal" x="1103.81" y="727.246">nombreJugador</text>
  </g>
  <g>
    <ellipse style="fill: #ffffff" cx="1922.06" cy="736.632" rx="77.75" ry="18"/>
    <ellipse style="fill: none; fill-opacity:0; stroke-width: 2; stroke: #000000" cx="1922.06" cy="736.632" rx="77.75" ry="18"/>
    <ellipse style="fill: none; fill-opacity:0; stroke-width: 2; stroke: #000000" cx="1922.06" cy="736.632" rx="69.75" ry="14"/>
    <text font-size="12.8" style="fill: #000000;text-anchor:middle;font-family:monospace;font-style:normal;font-weight:normal" x="1922.06" y="739.832">telefonoJugador</text>
  </g>
  <g>
    <ellipse style="fill: #ffffff" cx="2100.42" cy="727.822" rx="58.5" ry="18"/>
    <ellipse style="fill: none; fill-opacity:0; stroke-width: 2; stroke: #000000" cx="2100.42" cy="727.822" rx="58.5" ry="18"/>
    <text font-size="12.8" style="fill: #000000;text-anchor:middle;font-family:monospace;font-style:normal;font-weight:normal" x="2100.42" y="731.022">DocJugador</text>
    <line style="fill: none; fill-opacity:0; stroke-width: 2; stroke: #000000" x1="2061.92" y1="735.822" x2="2138.92" y2="735.822"/>
  </g>
  <g>
    <ellipse style="fill: #ffffff" cx="1268.54" cy="726.564" rx="62.35" ry="18"/>
    <ellipse style="fill: none; fill-opacity:0; stroke-width: 2; stroke: #000000" cx="1268.54" cy="726.564" rx="62.35" ry="18"/>
    <text font-size="12.8" style="fill: #000000;text-anchor:middle;font-family:monospace;font-style:normal;font-weight:normal" x="1268.54" y="729.764">edadJugador</text>
  </g>
  <g>
    <ellipse style="fill: #ffffff" cx="1426.16" cy="711.718" rx="77.75" ry="18"/>
    <ellipse style="fill: none; fill-opacity:0; stroke-width: 2; stroke: #000000" cx="1426.16" cy="711.718" rx="77.75" ry="18"/>
    <text font-size="12.8" style="fill: #000000;text-anchor:middle;font-family:monospace;font-style:normal;font-weight:normal" x="1426.16" y="714.918">partidosJugados</text>
  </g>
  <g>
    <ellipse style="fill: #ffffff" cx="1578.23" cy="737.788" rx="50.8" ry="18"/>
    <ellipse style="fill: none; fill-opacity:0; stroke-width: 2; stroke: #000000" cx="1578.23" cy="737.788" rx="50.8" ry="18"/>
    <ellipse style="fill: none; fill-opacity:0; stroke-width: 2; stroke: #000000" cx="1578.23" cy="737.788" rx="42.8" ry="14"/>
    <text font-size="12.8" style="fill: #000000;text-anchor:middle;font-family:monospace;font-style:normal;font-weight:normal" x="1578.23" y="740.988">partidos</text>
  </g>
  <g>
    <ellipse style="fill: #ffffff" cx="1741.23" cy="732.374" rx="93.15" ry="18"/>
    <ellipse style="fill: none; fill-opacity:0; stroke-width: 2; stroke: #000000" cx="1741.23" cy="732.374" rx="93.15" ry="18"/>
    <ellipse style="fill: none; fill-opacity:0; stroke-width: 2; stroke: #000000" cx="1741.23" cy="732.374" rx="85.15" ry="14"/>
    <text font-size="12.8" style="fill: #000000;text-anchor:middle;font-family:monospace;font-style:normal;font-weight:normal" x="1741.23" y="735.574">rendimientoPartidos</text>
  </g>
  <g>
    <polyline style="fill: none; fill-opacity:0; stroke-width: 2; stroke: #000000" points="1598.68,514.245 1598.68,609.641 1103.81,609.641 1103.81,695.301 "/>
    <polygon style="fill: #000000" points="1103.81,702.801 1098.81,692.801 1103.81,695.301 1108.81,692.801 "/>
    <polygon style="fill: none; fill-opacity:0; stroke-width: 2; stroke: #000000" points="1103.81,702.801 1098.81,692.801 1103.81,695.301 1108.81,692.801 "/>
  </g>
  <g>
    <polyline style="fill: none; fill-opacity:0; stroke-width: 2; stroke: #000000" points="1598.68,514.245 1598.68,610.9 1268.54,610.9 1268.54,697.819 "/>
    <polygon style="fill: #000000" points="1268.54,705.319 1263.54,695.319 1268.54,697.819 1273.54,695.319 "/>
    <polygon style="fill: none; fill-opacity:0; stroke-width: 2; stroke: #000000" points="1268.54,705.319 1263.54,695.319 1268.54,697.819 1273.54,695.319 "/>
  </g>
  <g>
    <polyline style="fill: none; fill-opacity:0; stroke-width: 2; stroke: #000000" points="1598.68,514.245 1598.68,603.982 1426.16,603.982 1426.16,683.982 "/>
    <polygon style="fill: #000000" points="1426.16,691.482 1421.16,681.482 1426.16,683.982 1431.16,681.482 "/>
    <polygon style="fill: none; fill-opacity:0; stroke-width: 2; stroke: #000000" points="1426.16,691.482 1421.16,681.482 1426.16,683.982 1431.16,681.482 "/>
  </g>
  <g>
    <polyline style="fill: none; fill-opacity:0; stroke-width: 2; stroke: #000000" points="1598.68,514.245 1598.68,616.512 1578.23,616.512 1578.23,709.043 "/>
    <polygon style="fill: #000000" points="1578.23,716.543 1573.23,706.543 1578.23,709.043 1583.23,706.543 "/>
    <polygon style="fill: none; fill-opacity:0; stroke-width: 2; stroke: #000000" points="1578.23,716.543 1573.23,706.543 1578.23,709.043 1583.23,706.543 "/>
  </g>
  <g>
    <polyline style="fill: none; fill-opacity:0; stroke-width: 2; stroke: #000000" points="1598.68,514.245 1598.68,613.805 1741.23,613.805 1741.23,703.629 "/>
    <polygon style="fill: #000000" points="1741.23,711.129 1736.23,701.129 1741.23,703.629 1746.23,701.129 "/>
    <polygon style="fill: none; fill-opacity:0; stroke-width: 2; stroke: #000000" points="1741.23,711.129 1736.23,701.129 1741.23,703.629 1746.23,701.129 "/>
  </g>
  <g>
    <polyline style="fill: none; fill-opacity:0; stroke-width: 2; stroke: #000000" points="1598.68,514.245 1598.68,616.439 1922.06,616.439 1922.06,708.896 "/>
    <polygon style="fill: #000000" points="1922.06,716.396 1917.06,706.396 1922.06,708.896 1927.06,706.396 "/>
    <polygon style="fill: none; fill-opacity:0; stroke-width: 2; stroke: #000000" points="1922.06,716.396 1917.06,706.396 1922.06,708.896 1927.06,706.396 "/>
  </g>
  <g>
    <polyline style="fill: none; fill-opacity:0; stroke-width: 2; stroke: #000000" points="1598.68,514.245 1598.68,611.529 2100.42,611.529 2100.42,699.077 "/>
    <polygon style="fill: #000000" points="2100.42,706.577 2095.42,696.577 2100.42,699.077 2105.42,696.577 "/>
    <polygon style="fill: none; fill-opacity:0; stroke-width: 2; stroke: #000000" points="2100.42,706.577 2095.42,696.577 2100.42,699.077 2105.42,696.577 "/>
  </g>
  <g>
    <ellipse style="fill: #ffffff" cx="1395.8" cy="1034" rx="73.9" ry="18"/>
    <ellipse style="fill: none; fill-opacity:0; stroke-width: 2; stroke: #000000" cx="1395.8" cy="1034" rx="73.9" ry="18"/>
    <text font-size="12.8" style="fill: #000000;text-anchor:middle;font-family:monospace;font-style:normal;font-weight:normal" x="1395.8" y="1037.2">nombreProfesor</text>
  </g>
  <g>
    <ellipse style="fill: #ffffff" cx="1607.05" cy="1037.59" rx="81.6" ry="18"/>
    <ellipse style="fill: none; fill-opacity:0; stroke-width: 2; stroke: #000000" cx="1607.05" cy="1037.59" rx="81.6" ry="18"/>
    <ellipse style="fill: none; fill-opacity:0; stroke-width: 2; stroke: #000000" cx="1607.05" cy="1037.59" rx="73.6" ry="14"/>
    <text font-size="12.8" style="fill: #000000;text-anchor:middle;font-family:monospace;font-style:normal;font-weight:normal" x="1607.05" y="1040.79">telefonoProfesor</text>
  </g>
  <g>
    <ellipse style="fill: #ffffff" cx="1785.41" cy="1028.78" rx="62.35" ry="18"/>
    <ellipse style="fill: none; fill-opacity:0; stroke-width: 2; stroke: #000000" cx="1785.41" cy="1028.78" rx="62.35" ry="18"/>
    <text font-size="12.8" style="fill: #000000;text-anchor:middle;font-family:monospace;font-style:normal;font-weight:normal" x="1785.41" y="1031.98">DocProfesor</text>
    <line style="fill: none; fill-opacity:0; stroke-width: 2; stroke: #000000" x1="1743.06" y1="1036.78" x2="1827.76" y2="1036.78"/>
  </g>
  <g>
    <polyline style="fill: none; fill-opacity:0; stroke-width: 2; stroke: #000000" points="1555,895 1555,894 1395.8,894 1395.8,1006.26 "/>
    <polygon style="fill: #000000" points="1395.8,1013.76 1390.8,1003.76 1395.8,1006.26 1400.8,1003.76 "/>
    <polygon style="fill: none; fill-opacity:0; stroke-width: 2; stroke: #000000" points="1395.8,1013.76 1390.8,1003.76 1395.8,1006.26 1400.8,1003.76 "/>
  </g>
  <g>
    <polyline style="fill: none; fill-opacity:0; stroke-width: 2; stroke: #000000" points="1600.88,906.926 1600.88,963.256 1607.05,963.256 1607.05,1009.85 "/>
    <polygon style="fill: #000000" points="1607.05,1017.35 1602.05,1007.35 1607.05,1009.85 1612.05,1007.35 "/>
    <polygon style="fill: none; fill-opacity:0; stroke-width: 2; stroke: #000000" points="1607.05,1017.35 1602.05,1007.35 1607.05,1009.85 1612.05,1007.35 "/>
  </g>
  <g>
    <polyline style="fill: none; fill-opacity:0; stroke-width: 2; stroke: #000000" points="1645.68,888.926 1785.41,888.926 1785.41,1001.04 "/>
    <polygon style="fill: #000000" points="1785.41,1008.54 1780.41,998.54 1785.41,1001.04 1790.41,998.54 "/>
    <polygon style="fill: none; fill-opacity:0; stroke-width: 2; stroke: #000000" points="1785.41,1008.54 1780.41,998.54 1785.41,1001.04 1790.41,998.54 "/>
  </g>
  <g>
    <ellipse style="fill: #ffffff" cx="2953.39" cy="354.264" rx="54.65" ry="18"/>
    <ellipse style="fill: none; fill-opacity:0; stroke-width: 2; stroke: #000000" cx="2953.39" cy="354.264" rx="54.65" ry="18"/>
    <text font-size="12.8" style="fill: #000000;text-anchor:middle;font-family:monospace;font-style:normal;font-weight:normal" x="2953.39" y="357.464">idPartido</text>
    <line style="fill: none; fill-opacity:0; stroke-width: 2; stroke: #000000" x1="2918.74" y1="362.264" x2="2988.04" y2="362.264"/>
  </g>
  <g>
    <ellipse style="fill: #ffffff" cx="2633.16" cy="362.588" rx="66.2" ry="18"/>
    <ellipse style="fill: none; fill-opacity:0; stroke-width: 2; stroke: #000000" cx="2633.16" cy="362.588" rx="66.2" ry="18"/>
    <text font-size="12.8" style="fill: #000000;text-anchor:middle;font-family:monospace;font-style:normal;font-weight:normal" x="2633.16" y="365.788">fechaPartido</text>
  </g>
  <g>
    <ellipse style="fill: #ffffff" cx="2804.04" cy="356.452" rx="81.6" ry="18"/>
    <ellipse style="fill: none; fill-opacity:0; stroke-width: 2; stroke: #000000" cx="2804.04" cy="356.452" rx="81.6" ry="18"/>
    <ellipse style="fill: none; fill-opacity:0; stroke-width: 2; stroke: #000000" cx="2804.04" cy="356.452" rx="73.6" ry="14"/>
    <text font-size="12.8" style="fill: #000000;text-anchor:middle;font-family:monospace;font-style:normal;font-weight:normal" x="2804.04" y="359.652">jugadoresPartido</text>
  </g>
  <g>
    <ellipse style="fill: #ffffff" cx="2465.95" cy="351.696" rx="62.35" ry="18"/>
    <ellipse style="fill: none; fill-opacity:0; stroke-width: 2; stroke: #000000" cx="2465.95" cy="351.696" rx="62.35" ry="18"/>
    <text font-size="12.8" style="fill: #000000;text-anchor:middle;font-family:monospace;font-style:normal;font-weight:normal" x="2465.95" y="354.896">tipoPartido</text>
  </g>
  <g>
    <polyline style="fill: none; fill-opacity:0; stroke-width: 2; stroke: #000000" points="2685.5,231.372 2465.95,231.372 2465.95,323.96 "/>
    <polygon style="fill: #000000" points="2465.95,331.46 2460.95,321.46 2465.95,323.96 2470.95,321.46 "/>
    <polygon style="fill: none; fill-opacity:0; stroke-width: 2; stroke: #000000" points="2465.95,331.46 2460.95,321.46 2465.95,323.96 2470.95,321.46 "/>
  </g>
  <g>
    <polyline style="fill: none; fill-opacity:0; stroke-width: 2; stroke: #000000" points="2685.5,231.372 2633.16,231.372 2633.16,334.852 "/>
    <polygon style="fill: #000000" points="2633.16,342.352 2628.16,332.352 2633.16,334.852 2638.16,332.352 "/>
    <polygon style="fill: none; fill-opacity:0; stroke-width: 2; stroke: #000000" points="2633.16,342.352 2628.16,332.352 2633.16,334.852 2638.16,332.352 "/>
  </g>
  <g>
    <polyline style="fill: none; fill-opacity:0; stroke-width: 2; stroke: #000000" points="2767.4,231.372 2953.39,231.372 2953.39,326.528 "/>
    <polygon style="fill: #000000" points="2953.39,334.028 2948.39,324.028 2953.39,326.528 2958.39,324.028 "/>
    <polygon style="fill: none; fill-opacity:0; stroke-width: 2; stroke: #000000" points="2953.39,334.028 2948.39,324.028 2953.39,326.528 2958.39,324.028 "/>
  </g>
  <g>
    <polyline style="fill: none; fill-opacity:0; stroke-width: 2; stroke: #000000" points="2767.4,231.372 2804.04,231.372 2804.04,328.716 "/>
    <polygon style="fill: #000000" points="2804.04,336.216 2799.04,326.216 2804.04,328.716 2809.04,326.216 "/>
    <polygon style="fill: none; fill-opacity:0; stroke-width: 2; stroke: #000000" points="2804.04,336.216 2799.04,326.216 2804.04,328.716 2809.04,326.216 "/>
  </g>
  <g>
    <rect style="fill: #ffffff" x="683.925" y="26.668" width="202.5" height="28"/>
    <rect style="fill: none; fill-opacity:0; stroke-width: 2; stroke: #000000" x="683.925" y="26.668" width="202.5" height="28"/>
    <text font-size="16" style="fill: #000000;text-anchor:middle;font-family:sans-serif;font-style:normal;font-weight:700" x="785.175" y="46.668">Rendimiento Jugador</text>
    <rect style="fill: #ffffff" x="683.925" y="54.668" width="202.5" height="116"/>
    <rect style="fill: none; fill-opacity:0; stroke-width: 2; stroke: #000000" x="683.925" y="54.668" width="202.5" height="116"/>
    <text font-size="12.8" style="fill: #000000;text-anchor:start;font-family:monospace;font-style:normal;font-weight:normal" x="686.925" y="67.868">+docJugador: string</text>
    <text font-size="12.8" style="fill: #000000;text-anchor:start;font-family:monospace;font-style:normal;font-weight:normal" x="686.925" y="83.868">+metrosRecorridos: double</text>
    <text font-size="12.8" style="fill: #000000;text-anchor:start;font-family:monospace;font-style:normal;font-weight:normal" x="686.925" y="99.868">+pasesRealizados: int</text>
    <text font-size="12.8" style="fill: #000000;text-anchor:start;font-family:monospace;font-style:normal;font-weight:normal" x="686.925" y="115.868">+golesRealizados: int</text>
    <text font-size="12.8" style="fill: #000000;text-anchor:start;font-family:monospace;font-style:normal;font-weight:normal" x="686.925" y="131.868">+numeroFaltas: int</text>
    <text font-size="12.8" style="fill: #000000;text-anchor:start;font-family:monospace;font-style:normal;font-weight:normal" x="686.925" y="147.868">+pasesFallidos: int</text>
    <text font-size="12.8" style="fill: #000000;text-anchor:start;font-family:monospace;font-style:normal;font-weight:normal" x="686.925" y="163.868">+golesFallidos: int</text>
    <rect style="fill: #ffffff" x="683.925" y="170.668" width="202.5" height="36"/>
    <rect style="fill: none; fill-opacity:0; stroke-width: 2; stroke: #000000" x="683.925" y="170.668" width="202.5" height="36"/>
    <text font-size="12.8" style="fill: #000000;text-anchor:start;font-family:monospace;font-style:normal;font-weight:normal" x="686.925" y="183.868">+registrarDatos()</text>
    <text font-size="12.8" style="fill: #000000;text-anchor:start;font-family:monospace;font-style:normal;font-weight:normal" x="686.925" y="199.868">+consultarDatos()</text>
  </g>
  <g>
    <polyline style="fill: none; fill-opacity:0; stroke-width: 2; stroke: #000000" points="566.135,128.402 625.03,128.402 625.03,112.668 683.925,112.668 "/>
    <polygon style="fill: #000000" points="629.03,120.535 629.03,112.535 637.03,116.535 "/>
  </g>
</svg>
