<?xml version="1.0" encoding="UTF-8" standalone="no"?>
<!DOCTYPE svg PUBLIC "-//W3C//DTD SVG 1.0//EN" "http://www.w3.org/TR/2001/PR-SVG-20010719/DTD/svg10.dtd">
<svg width="151cm" height="50cm" viewBox="-2 61 3011 995" xmlns="http://www.w3.org/2000/svg" xmlns:xlink="http://www.w3.org/1999/xlink">
  <g>
    <rect style="fill: #ffffff" x="-0.672042" y="196.983" width="194.8" height="28"/>
    <rect style="fill: none; fill-opacity:0; stroke-width: 2; stroke: #000000" x="-0.672042" y="196.983" width="194.8" height="28"/>
    <text font-size="16" style="fill: #000000;text-anchor:middle;font-family:sans-serif;font-style:normal;font-weight:700" x="96.728" y="216.983">Usuario</text>
    <rect style="fill: #ffffff" x="-0.672042" y="224.983" width="194.8" height="52"/>
    <rect style="fill: none; fill-opacity:0; stroke-width: 2; stroke: #000000" x="-0.672042" y="224.983" width="194.8" height="52"/>
    <text font-size="12.8" style="fill: #000000;text-anchor:start;font-family:monospace;font-style:normal;font-weight:normal" x="2.32796" y="238.183">+nombreUsuario: string</text>
    <text font-size="12.8" style="fill: #000000;text-anchor:start;font-family:monospace;font-style:normal;font-weight:normal" x="2.32796" y="254.183">+docUsuario: int</text>
    <text font-size="12.8" style="fill: #000000;text-anchor:start;font-family:monospace;font-style:normal;font-weight:normal" x="2.32796" y="270.183">+permisosUsuario: string</text>
    <rect style="fill: #ffffff" x="-0.672042" y="276.983" width="194.8" height="52"/>
    <rect style="fill: none; fill-opacity:0; stroke-width: 2; stroke: #000000" x="-0.672042" y="276.983" width="194.8" height="52"/>
    <text font-size="12.8" style="fill: #000000;text-anchor:start;font-family:monospace;font-style:normal;font-weight:normal" x="2.32796" y="290.183">+registrarUsuario()</text>
    <text font-size="12.8" style="fill: #000000;text-anchor:start;font-family:monospace;font-style:normal;font-weight:normal" x="2.32796" y="306.183">+consultarUsuario()</text>
    <text font-size="12.8" style="fill: #000000;text-anchor:start;font-family:monospace;font-style:normal;font-weight:normal" x="2.32796" y="322.183">+desactivarUsuario()</text>
  </g>
  <g>
    <rect style="fill: #ffffff" x="515.328" y="180.166" width="210.2" height="28"/>
    <rect style="fill: none; fill-opacity:0; stroke-width: 2; stroke: #000000" x="515.328" y="180.166" width="210.2" height="28"/>
    <text font-size="16" style="fill: #000000;text-anchor:middle;font-family:sans-serif;font-style:normal;font-weight:700" x="620.428" y="200.166">Jugador</text>
    <rect style="fill: #ffffff" x="515.328" y="208.166" width="210.2" height="116"/>
    <rect style="fill: none; fill-opacity:0; stroke-width: 2; stroke: #000000" x="515.328" y="208.166" width="210.2" height="116"/>
    <text font-size="12.8" style="fill: #000000;text-anchor:start;font-family:monospace;font-style:normal;font-weight:normal" x="518.328" y="221.366">+nombreJugador: string</text>
    <text font-size="12.8" style="fill: #000000;text-anchor:start;font-family:monospace;font-style:normal;font-weight:normal" x="518.328" y="237.366">+docJugador: int</text>
    <text font-size="12.8" style="fill: #000000;text-anchor:start;font-family:monospace;font-style:normal;font-weight:normal" x="518.328" y="253.366">+edadJugador: int</text>
    <text font-size="12.8" style="fill: #000000;text-anchor:start;font-family:monospace;font-style:normal;font-weight:normal" x="518.328" y="269.366">+telefonoJugador: int</text>
    <text font-size="12.8" style="fill: #000000;text-anchor:start;font-family:monospace;font-style:normal;font-weight:normal" x="518.328" y="285.366">+partidosJugados: int</text>
    <text font-size="12.8" style="fill: #000000;text-anchor:start;font-family:monospace;font-style:normal;font-weight:normal" x="518.328" y="301.366">+partidos: list</text>
    <text font-size="12.8" style="fill: #000000;text-anchor:start;font-family:monospace;font-style:normal;font-weight:normal" x="518.328" y="317.366">+rendimientoPartidos: list</text>
    <rect style="fill: #ffffff" x="515.328" y="324.166" width="210.2" height="52"/>
    <rect style="fill: none; fill-opacity:0; stroke-width: 2; stroke: #000000" x="515.328" y="324.166" width="210.2" height="52"/>
    <text font-size="12.8" style="fill: #000000;text-anchor:start;font-family:monospace;font-style:normal;font-weight:normal" x="518.328" y="337.366">+registrarJugador()</text>
    <text font-size="12.8" style="fill: #000000;text-anchor:start;font-family:monospace;font-style:normal;font-weight:normal" x="518.328" y="353.366">+consultarJugador()</text>
    <text font-size="12.8" style="fill: #000000;text-anchor:start;font-family:monospace;font-style:normal;font-weight:normal" x="518.328" y="369.366">+desactivarJugador()</text>
  </g>
  <g>
    <rect style="fill: #ffffff" x="511.228" y="507.982" width="187.1" height="28"/>
    <rect style="fill: none; fill-opacity:0; stroke-width: 2; stroke: #000000" x="511.228" y="507.982" width="187.1" height="28"/>
    <text font-size="16" style="fill: #000000;text-anchor:middle;font-family:sans-serif;font-style:normal;font-weight:700" x="604.778" y="527.982">Profesor</text>
    <rect style="fill: #ffffff" x="511.228" y="535.982" width="187.1" height="52"/>
    <rect style="fill: none; fill-opacity:0; stroke-width: 2; stroke: #000000" x="511.228" y="535.982" width="187.1" height="52"/>
    <text font-size="12.8" style="fill: #000000;text-anchor:start;font-family:monospace;font-style:normal;font-weight:normal" x="514.228" y="549.182">+nombreProfesor: string</text>
    <text font-size="12.8" style="fill: #000000;text-anchor:start;font-family:monospace;font-style:normal;font-weight:normal" x="514.228" y="565.182">+docProfesor: int</text>
    <text font-size="12.8" style="fill: #000000;text-anchor:start;font-family:monospace;font-style:normal;font-weight:normal" x="514.228" y="581.182">+telefonoProfesor</text>
    <rect style="fill: #ffffff" x="511.228" y="587.982" width="187.1" height="52"/>
    <rect style="fill: none; fill-opacity:0; stroke-width: 2; stroke: #000000" x="511.228" y="587.982" width="187.1" height="52"/>
    <text font-size="12.8" style="fill: #000000;text-anchor:start;font-family:monospace;font-style:normal;font-weight:normal" x="514.228" y="601.182">+registrarProfesor()</text>
    <text font-size="12.8" style="fill: #000000;text-anchor:start;font-family:monospace;font-style:normal;font-weight:normal" x="514.228" y="617.182">+consultarProfesor()</text>
    <text font-size="12.8" style="fill: #000000;text-anchor:start;font-family:monospace;font-style:normal;font-weight:normal" x="514.228" y="633.182">+desactivarProfesor()</text>
  </g>
  <g>
    <polyline style="fill: none; fill-opacity:0; stroke-width: 2; stroke: #000000" points="194.128,266.983 354.728,266.983 354.728,266.166 515.328,266.166 "/>
    <text font-size="12.7998" style="fill: #000000;text-anchor:start;font-family:monospace;font-style:normal;font-weight:normal" x="356.728" y="262.575"></text>
    <polygon style="fill: #000000" points="358.728,262.575 358.728,254.575 366.728,258.575 "/>
    <text font-size="12.7998" style="fill: #000000;text-anchor:start;font-family:monospace;font-style:normal;font-weight:normal" x="198.128" y="262.983">1</text>
    <text font-size="12.7998" style="fill: #000000;text-anchor:end;font-family:monospace;font-style:normal;font-weight:normal" x="511.328" y="262.166">1...n</text>
  </g>
  <g>
    <polyline style="fill: none; fill-opacity:0; stroke-width: 2; stroke: #000000" points="194.128,266.983 352.678,266.983 352.678,577.982 511.228,577.982 "/>
    <text font-size="12.7998" style="fill: #000000;text-anchor:start;font-family:monospace;font-style:normal;font-weight:normal" x="354.678" y="418.482"></text>
    <polygon style="fill: #000000" points="356.678,418.482 356.678,410.482 364.678,414.482 "/>
    <text font-size="12.7998" style="fill: #000000;text-anchor:start;font-family:monospace;font-style:normal;font-weight:normal" x="198.128" y="262.983">1</text>
    <text font-size="12.7998" style="fill: #000000;text-anchor:end;font-family:monospace;font-style:normal;font-weight:normal" x="507.228" y="573.982">1..n</text>
  </g>
  <g>
    <rect style="fill: #ffffff" x="884.114" y="195.801" width="187.1" height="28"/>
    <rect style="fill: none; fill-opacity:0; stroke-width: 2; stroke: #000000" x="884.114" y="195.801" width="187.1" height="28"/>
    <text font-size="16" style="fill: #000000;text-anchor:middle;font-family:sans-serif;font-style:normal;font-weight:700" x="977.664" y="215.801">Partido</text>
    <rect style="fill: #ffffff" x="884.114" y="223.801" width="187.1" height="68"/>
    <rect style="fill: none; fill-opacity:0; stroke-width: 2; stroke: #000000" x="884.114" y="223.801" width="187.1" height="68"/>
    <text font-size="12.8" style="fill: #000000;text-anchor:start;font-family:monospace;font-style:normal;font-weight:normal" x="887.114" y="237.001">+idPartido: string</text>
    <text font-size="12.8" style="fill: #000000;text-anchor:start;font-family:monospace;font-style:normal;font-weight:normal" x="887.114" y="253.001">+fechaPartido: string</text>
    <text font-size="12.8" style="fill: #000000;text-anchor:start;font-family:monospace;font-style:normal;font-weight:normal" x="887.114" y="269.001">+jugadoresPartido: list</text>
    <text font-size="12.8" style="fill: #000000;text-anchor:start;font-family:monospace;font-style:normal;font-weight:normal" x="887.114" y="285.001">+tipoPartido: string</text>
    <rect style="fill: #ffffff" x="884.114" y="291.801" width="187.1" height="52"/>
    <rect style="fill: none; fill-opacity:0; stroke-width: 2; stroke: #000000" x="884.114" y="291.801" width="187.1" height="52"/>
    <text font-size="12.8" style="fill: #000000;text-anchor:start;font-family:monospace;font-style:normal;font-weight:normal" x="887.114" y="305.001">+registrarPartido()</text>
    <text font-size="12.8" style="fill: #000000;text-anchor:start;font-family:monospace;font-style:normal;font-weight:normal" x="887.114" y="321.001">+consultarPartido()</text>
    <text font-size="12.8" style="fill: #000000;text-anchor:start;font-family:monospace;font-style:normal;font-weight:normal" x="887.114" y="337.001">+filtrarJugadores()</text>
  </g>
  <g>
    <polyline style="fill: none; fill-opacity:0; stroke-width: 2; stroke: #000000" points="883.108,269.801 804.821,269.801 804.821,278.166 726.534,278.166 "/>
    <text font-size="12.7998" style="fill: #000000;text-anchor:start;font-family:monospace;font-style:normal;font-weight:normal" x="806.821" y="269.984"></text>
    <polygon style="fill: #000000" points="808.821,269.984 808.821,261.984 816.821,265.984 "/>
    <text font-size="12.7998" style="fill: #000000;text-anchor:end;font-family:monospace;font-style:normal;font-weight:normal" x="879.108" y="265.801">1...n</text>
    <text font-size="12.7998" style="fill: #000000;text-anchor:start;font-family:monospace;font-style:normal;font-weight:normal" x="730.534" y="274.166">1</text>
  </g>
  <text font-size="28.2222" style="fill: #000000;text-anchor:start;font-family:sans-serif;font-style:normal;font-weight:normal" x="432.904" y="99.608">
    <tspan x="432.904" y="99.608">Diagrama De Clases</tspan>
  </text>
  <text font-size="28.2222" style="fill: #000000;text-anchor:start;font-family:sans-serif;font-style:normal;font-weight:normal" x="1798.42" y="89.8676">
    <tspan x="1798.42" y="89.8676">EML</tspan>
  </text>
  <g>
    <rect style="fill: #ffffff" x="1601.78" y="131.116" width="81.9" height="36"/>
    <rect style="fill: none; fill-opacity:0; stroke-width: 2; stroke: #000000" x="1601.78" y="131.116" width="81.9" height="36"/>
    <text font-size="12.8" style="fill: #000000;text-anchor:middle;font-family:monospace;font-style:normal;font-weight:normal" x="1642.73" y="152.316">Usuario</text>
  </g>
  <g>
    <rect style="fill: #ffffff" x="1557.73" y="477.236" width="81.9" height="36"/>
    <rect style="fill: none; fill-opacity:0; stroke-width: 2; stroke: #000000" x="1557.73" y="477.236" width="81.9" height="36"/>
    <text font-size="12.8" style="fill: #000000;text-anchor:middle;font-family:monospace;font-style:normal;font-weight:normal" x="1598.68" y="498.436">Jugador</text>
  </g>
  <g>
    <rect style="fill: #ffffff" x="1556.08" y="870.926" width="89.6" height="36"/>
    <rect style="fill: none; fill-opacity:0; stroke-width: 2; stroke: #000000" x="1556.08" y="870.926" width="89.6" height="36"/>
    <text font-size="12.8" style="fill: #000000;text-anchor:middle;font-family:monospace;font-style:normal;font-weight:normal" x="1600.88" y="892.126">Profesor</text>
  </g>
  <g>
    <rect style="fill: #ffffff" x="2685.51" y="213.372" width="81.9" height="36"/>
    <rect style="fill: none; fill-opacity:0; stroke-width: 2; stroke: #000000" x="2685.51" y="213.372" width="81.9" height="36"/>
    <text font-size="12.8" style="fill: #000000;text-anchor:middle;font-family:monospace;font-style:normal;font-weight:normal" x="2726.46" y="234.572">Partido</text>
  </g>
  <g>
    <ellipse style="fill: #ffffff" cx="1407.52" cy="298.892" rx="70.05" ry="18"/>
    <ellipse style="fill: none; fill-opacity:0; stroke-width: 2; stroke: #000000" cx="1407.52" cy="298.892" rx="70.05" ry="18"/>
    <text font-size="12.8" style="fill: #000000;text-anchor:middle;font-family:monospace;font-style:normal;font-weight:normal" x="1407.52" y="302.092">nombreUsuario</text>
  </g>
  <g>
    <ellipse style="fill: #ffffff" cx="1588.91" cy="320.288" rx="77.75" ry="18"/>
    <ellipse style="fill: none; fill-opacity:0; stroke-width: 2; stroke: #000000" cx="1588.91" cy="320.288" rx="77.75" ry="18"/>
    <ellipse style="fill: none; fill-opacity:0; stroke-width: 2; stroke: #000000" cx="1588.91" cy="320.288" rx="69.75" ry="14"/>
    <text font-size="12.8" style="fill: #000000;text-anchor:middle;font-family:monospace;font-style:normal;font-weight:normal" x="1588.91" y="323.488">permisosUsuario</text>
  </g>
  <g>
    <ellipse style="fill: #ffffff" cx="1767.26" cy="311.478" rx="58.5" ry="18"/>
    <ellipse style="fill: none; fill-opacity:0; stroke-width: 2; stroke: #000000" cx="1767.26" cy="311.478" rx="58.5" ry="18"/>
    <text font-size="12.8" style="fill: #000000;text-anchor:middle;font-family:monospace;font-style:normal;font-weight:normal" x="1767.26" y="314.678">DocUsuario</text>
    <line style="fill: none; fill-opacity:0; stroke-width: 2; stroke: #000000" x1="1728.76" y1="319.478" x2="1805.76" y2="319.478"/>
  </g>
  <g>
    <polyline style="fill: none; fill-opacity:0; stroke-width: 2; stroke: #000000" points="1642.73,168.125 1642.73,234.702 1588.91,234.702 1588.91,291.543 "/>
    <polygon style="fill: #000000" points="1588.91,299.043 1583.91,289.043 1588.91,291.543 1593.91,289.043 "/>
    <polygon style="fill: none; fill-opacity:0; stroke-width: 2; stroke: #000000" points="1588.91,299.043 1583.91,289.043 1588.91,291.543 1593.91,289.043 "/>
  </g>
  <g>
    <polyline style="fill: none; fill-opacity:0; stroke-width: 2; stroke: #000000" points="1642.73,168.125 1642.73,224.004 1407.52,224.004 1407.52,270.147 "/>
    <polygon style="fill: #000000" points="1407.52,277.647 1402.52,267.647 1407.52,270.147 1412.52,267.647 "/>
    <polygon style="fill: none; fill-opacity:0; stroke-width: 2; stroke: #000000" points="1407.52,277.647 1402.52,267.647 1407.52,270.147 1412.52,267.647 "/>
  </g>
  <g>
    <polyline style="fill: none; fill-opacity:0; stroke-width: 2; stroke: #000000" points="1642.73,168.125 1642.73,230.297 1767.26,230.297 1767.26,282.733 "/>
    <polygon style="fill: #000000" points="1767.26,290.233 1762.26,280.233 1767.26,282.733 1772.26,280.233 "/>
    <polygon style="fill: none; fill-opacity:0; stroke-width: 2; stroke: #000000" points="1767.26,290.233 1762.26,280.233 1767.26,282.733 1772.26,280.233 "/>
  </g>
  <g>
    <ellipse style="fill: #ffffff" cx="1103.81" cy="724.046" rx="70.05" ry="18"/>
    <ellipse style="fill: none; fill-opacity:0; stroke-width: 2; stroke: #000000" cx="1103.81" cy="724.046" rx="70.05" ry="18"/>
    <text font-size="12.8" style="fill: #000000;text-anchor:middle;font-family:monospace;font-style:normal;font-weight:normal" x="1103.81" y="727.246">nombreJugador</text>
  </g>
  <g>
    <ellipse style="fill: #ffffff" cx="1922.06" cy="736.632" rx="77.75" ry="18"/>
    <ellipse style="fill: none; fill-opacity:0; stroke-width: 2; stroke: #000000" cx="1922.06" cy="736.632" rx="77.75" ry="18"/>
    <ellipse style="fill: none; fill-opacity:0; stroke-width: 2; stroke: #000000" cx="1922.06" cy="736.632" rx="69.75" ry="14"/>
    <text font-size="12.8" style="fill: #000000;text-anchor:middle;font-family:monospace;font-style:normal;font-weight:normal" x="1922.06" y="739.832">telefonoJugador</text>
  </g>
  <g>
    <ellipse style="fill: #ffffff" cx="2100.42" cy="727.822" rx="58.5" ry="18"/>
    <ellipse style="fill: none; fill-opacity:0; stroke-width: 2; stroke: #000000" cx="2100.42" cy="727.822" rx="58.5" ry="18"/>
    <text font-size="12.8" style="fill: #000000;text-anchor:middle;font-family:monospace;font-style:normal;font-weight:normal" x="2100.42" y="731.022">DocJugador</text>
    <line style="fill: none; fill-opacity:0; stroke-width: 2; stroke: #000000" x1="2061.92" y1="735.822" x2="2138.92" y2="735.822"/>
  </g>
  <g>
    <ellipse style="fill: #ffffff" cx="1268.54" cy="726.564" rx="62.35" ry="18"/>
    <ellipse style="fill: none; fill-opacity:0; stroke-width: 2; stroke: #000000" cx="1268.54" cy="726.564" rx="62.35" ry="18"/>
    <text font-size="12.8" style="fill: #000000;text-anchor:middle;font-family:monospace;font-style:normal;font-weight:normal" x="1268.54" y="729.764">edadJugador</text>
  </g>
  <g>
    <ellipse style="fill: #ffffff" cx="1426.16" cy="711.718" rx="77.75" ry="18"/>
    <ellipse style="fill: none; fill-opacity:0; stroke-width: 2; stroke: #000000" cx="1426.16" cy="711.718" rx="77.75" ry="18"/>
    <text font-size="12.8" style="fill: #000000;text-anchor:middle;font-family:monospace;font-style:normal;font-weight:normal" x="1426.16" y="714.918">partidosJugados</text>
  </g>
  <g>
    <ellipse style="fill: #ffffff" cx="1578.23" cy="737.788" rx="50.8" ry="18"/>
    <ellipse style="fill: none; fill-opacity:0; stroke-width: 2; stroke: #000000" cx="1578.23" cy="737.788" rx="50.8" ry="18"/>
    <ellipse style="fill: none; fill-opacity:0; stroke-width: 2; stroke: #000000" cx="1578.23" cy="737.788" rx="42.8" ry="14"/>
    <text font-size="12.8" style="fill: #000000;text-anchor:middle;font-family:monospace;font-style:normal;font-weight:normal" x="1578.23" y="740.988">partidos</text>
  </g>
  <g>
    <ellipse style="fill: #ffffff" cx="1741.23" cy="732.374" rx="93.15" ry="18"/>
    <ellipse style="fill: none; fill-opacity:0; stroke-width: 2; stroke: #000000" cx="1741.23" cy="732.374" rx="93.15" ry="18"/>
    <ellipse style="fill: none; fill-opacity:0; stroke-width: 2; stroke: #000000" cx="1741.23" cy="732.374" rx="85.15" ry="14"/>
    <text font-size="12.8" style="fill: #000000;text-anchor:middle;font-family:monospace;font-style:normal;font-weight:normal" x="1741.23" y="735.574">rendimientoPartidos</text>
  </g>
  <g>
    <polyline style="fill: none; fill-opacity:0; stroke-width: 2; stroke: #000000" points="1598.68,514.245 1598.68,609.641 1103.81,609.641 1103.81,695.301 "/>
    <polygon style="fill: #000000" points="1103.81,702.801 1098.81,692.801 1103.81,695.301 1108.81,692.801 "/>
    <polygon style="fill: none; fill-opacity:0; stroke-width: 2; stroke: #000000" points="1103.81,702.801 1098.81,692.801 1103.81,695.301 1108.81,692.801 "/>
  </g>
  <g>
    <polyline style="fill: none; fill-opacity:0; stroke-width: 2; stroke: #000000" points="1598.68,514.245 1598.68,610.9 1268.54,610.9 1268.54,697.819 "/>
    <polygon style="fill: #000000" points="1268.54,705.319 1263.54,695.319 1268.54,697.819 1273.54,695.319 "/>
    <polygon style="fill: none; fill-opacity:0; stroke-width: 2; stroke: #000000" points="1268.54,705.319 1263.54,695.319 1268.54,697.819 1273.54,695.319 "/>
  </g>
  <g>
    <polyline style="fill: none; fill-opacity:0; stroke-width: 2; stroke: #000000" points="1598.68,514.245 1598.68,603.982 1426.16,603.982 1426.16,683.982 "/>
    <polygon style="fill: #000000" points="1426.16,691.482 1421.16,681.482 1426.16,683.982 1431.16,681.482 "/>
    <polygon style="fill: none; fill-opacity:0; stroke-width: 2; stroke: #000000" points="1426.16,691.482 1421.16,681.482 1426.16,683.982 1431.16,681.482 "/>
  </g>
  <g>
    <polyline style="fill: none; fill-opacity:0; stroke-width: 2; stroke: #000000" points="1598.68,514.245 1598.68,616.512 1578.23,616.512 1578.23,709.043 "/>
    <polygon style="fill: #000000" points="1578.23,716.543 1573.23,706.543 1578.23,709.043 1583.23,706.543 "/>
    <polygon style="fill: none; fill-opacity:0; stroke-width: 2; stroke: #000000" points="1578.23,716.543 1573.23,706.543 1578.23,709.043 1583.23,706.543 "/>
  </g>
  <g>
    <polyline style="fill: none; fill-opacity:0; stroke-width: 2; stroke: #000000" points="1598.68,514.245 1598.68,613.805 1741.23,613.805 1741.23,703.629 "/>
    <polygon style="fill: #000000" points="1741.23,711.129 1736.23,701.129 1741.23,703.629 1746.23,701.129 "/>
    <polygon style="fill: none; fill-opacity:0; stroke-width: 2; stroke: #000000" points="1741.23,711.129 1736.23,701.129 1741.23,703.629 1746.23,701.129 "/>
  </g>
  <g>
    <polyline style="fill: none; fill-opacity:0; stroke-width: 2; stroke: #000000" points="1598.68,514.245 1598.68,616.439 1922.06,616.439 1922.06,708.896 "/>
    <polygon style="fill: #000000" points="1922.06,716.396 1917.06,706.396 1922.06,708.896 1927.06,706.396 "/>
    <polygon style="fill: none; fill-opacity:0; stroke-width: 2; stroke: #000000" points="1922.06,716.396 1917.06,706.396 1922.06,708.896 1927.06,706.396 "/>
  </g>
  <g>
    <polyline style="fill: none; fill-opacity:0; stroke-width: 2; stroke: #000000" points="1598.68,514.245 1598.68,611.529 2100.42,611.529 2100.42,699.077 "/>
    <polygon style="fill: #000000" points="2100.42,706.577 2095.42,696.577 2100.42,699.077 2105.42,696.577 "/>
    <polygon style="fill: none; fill-opacity:0; stroke-width: 2; stroke: #000000" points="2100.42,706.577 2095.42,696.577 2100.42,699.077 2105.42,696.577 "/>
  </g>
  <g>
    <ellipse style="fill: #ffffff" cx="1395.8" cy="1034" rx="73.9" ry="18"/>
    <ellipse style="fill: none; fill-opacity:0; stroke-width: 2; stroke: #000000" cx="1395.8" cy="1034" rx="73.9" ry="18"/>
    <text font-size="12.8" style="fill: #000000;text-anchor:middle;font-family:monospace;font-style:normal;font-weight:normal" x="1395.8" y="1037.2">nombreProfesor</text>
  </g>
  <g>
    <ellipse style="fill: #ffffff" cx="1607.05" cy="1037.59" rx="81.6" ry="18"/>
    <ellipse style="fill: none; fill-opacity:0; stroke-width: 2; stroke: #000000" cx="1607.05" cy="1037.59" rx="81.6" ry="18"/>
    <ellipse style="fill: none; fill-opacity:0; stroke-width: 2; stroke: #000000" cx="1607.05" cy="1037.59" rx="73.6" ry="14"/>
    <text font-size="12.8" style="fill: #000000;text-anchor:middle;font-family:monospace;font-style:normal;font-weight:normal" x="1607.05" y="1040.79">telefonoProfesor</text>
  </g>
  <g>
    <ellipse style="fill: #ffffff" cx="1785.41" cy="1028.78" rx="62.35" ry="18"/>
    <ellipse style="fill: none; fill-opacity:0; stroke-width: 2; stroke: #000000" cx="1785.41" cy="1028.78" rx="62.35" ry="18"/>
    <text font-size="12.8" style="fill: #000000;text-anchor:middle;font-family:monospace;font-style:normal;font-weight:normal" x="1785.41" y="1031.98">DocProfesor</text>
    <line style="fill: none; fill-opacity:0; stroke-width: 2; stroke: #000000" x1="1743.06" y1="1036.78" x2="1827.76" y2="1036.78"/>
  </g>
  <g>
    <polyline style="fill: none; fill-opacity:0; stroke-width: 2; stroke: #000000" points="1555,895 1555,894 1395.8,894 1395.8,1006.26 "/>
    <polygon style="fill: #000000" points="1395.8,1013.76 1390.8,1003.76 1395.8,1006.26 1400.8,1003.76 "/>
    <polygon style="fill: none; fill-opacity:0; stroke-width: 2; stroke: #000000" points="1395.8,1013.76 1390.8,1003.76 1395.8,1006.26 1400.8,1003.76 "/>
  </g>
  <g>
    <polyline style="fill: none; fill-opacity:0; stroke-width: 2; stroke: #000000" points="1600.88,906.926 1600.88,963.256 1607.05,963.256 1607.05,1009.85 "/>
    <polygon style="fill: #000000" points="1607.05,1017.35 1602.05,1007.35 1607.05,1009.85 1612.05,1007.35 "/>
    <polygon style="fill: none; fill-opacity:0; stroke-width: 2; stroke: #000000" points="1607.05,1017.35 1602.05,1007.35 1607.05,1009.85 1612.05,1007.35 "/>
  </g>
  <g>
    <polyline style="fill: none; fill-opacity:0; stroke-width: 2; stroke: #000000" points="1645.68,888.926 1785.41,888.926 1785.41,1001.04 "/>
    <polygon style="fill: #000000" points="1785.41,1008.54 1780.41,998.54 1785.41,1001.04 1790.41,998.54 "/>
    <polygon style="fill: none; fill-opacity:0; stroke-width: 2; stroke: #000000" points="1785.41,1008.54 1780.41,998.54 1785.41,1001.04 1790.41,998.54 "/>
  </g>
  <g>
    <ellipse style="fill: #ffffff" cx="2953.4" cy="354.264" rx="54.65" ry="18"/>
    <ellipse style="fill: none; fill-opacity:0; stroke-width: 2; stroke: #000000" cx="2953.4" cy="354.264" rx="54.65" ry="18"/>
    <text font-size="12.7998" style="fill: #000000;text-anchor:middle;font-family:monospace;font-style:normal;font-weight:normal" x="2953.4" y="358.264">idPartido</text>
    <line style="fill: none; fill-opacity:0; stroke-width: 2; stroke: #000000" x1="2918.75" y1="362.264" x2="2988.05" y2="362.264"/>
  </g>
  <g>
    <ellipse style="fill: #ffffff" cx="2633.16" cy="362.588" rx="66.2" ry="18"/>
    <ellipse style="fill: none; fill-opacity:0; stroke-width: 2; stroke: #000000" cx="2633.16" cy="362.588" rx="66.2" ry="18"/>
    <text font-size="12.7998" style="fill: #000000;text-anchor:middle;font-family:monospace;font-style:normal;font-weight:normal" x="2633.16" y="366.588">fechaPartido</text>
  </g>
  <g>
    <ellipse style="fill: #ffffff" cx="2804.04" cy="356.453" rx="81.6" ry="18"/>
    <ellipse style="fill: none; fill-opacity:0; stroke-width: 2; stroke: #000000" cx="2804.04" cy="356.453" rx="81.6" ry="18"/>
    <ellipse style="fill: none; fill-opacity:0; stroke-width: 2; stroke: #000000" cx="2804.04" cy="356.453" rx="73.6" ry="14"/>
    <text font-size="12.7998" style="fill: #000000;text-anchor:middle;font-family:monospace;font-style:normal;font-weight:normal" x="2804.04" y="360.453">jugadoresPartido</text>
  </g>
  <g>
    <ellipse style="fill: #ffffff" cx="2465.96" cy="351.696" rx="62.35" ry="18"/>
    <ellipse style="fill: none; fill-opacity:0; stroke-width: 2; stroke: #000000" cx="2465.96" cy="351.696" rx="62.35" ry="18"/>
    <text font-size="12.7998" style="fill: #000000;text-anchor:middle;font-family:monospace;font-style:normal;font-weight:normal" x="2465.96" y="355.696">tipoPartido</text>
  </g>
  <g>
    <polyline style="fill: none; fill-opacity:0; stroke-width: 2; stroke: #000000" points="2685.51,231.372 2465.96,231.372 2465.96,323.96 "/>
    <polygon style="fill: #000000" points="2465.96,331.46 2460.96,321.46 2465.96,323.96 2470.96,321.46 "/>
    <polygon style="fill: none; fill-opacity:0; stroke-width: 2; stroke: #000000" points="2465.96,331.46 2460.96,321.46 2465.96,323.96 2470.96,321.46 "/>
  </g>
  <g>
    <polyline style="fill: none; fill-opacity:0; stroke-width: 2; stroke: #000000" points="2685.51,231.372 2633.16,231.372 2633.16,334.852 "/>
    <polygon style="fill: #000000" points="2633.16,342.352 2628.16,332.352 2633.16,334.852 2638.16,332.352 "/>
    <polygon style="fill: none; fill-opacity:0; stroke-width: 2; stroke: #000000" points="2633.16,342.352 2628.16,332.352 2633.16,334.852 2638.16,332.352 "/>
  </g>
  <g>
    <polyline style="fill: none; fill-opacity:0; stroke-width: 2; stroke: #000000" points="2767.41,231.372 2953.4,231.372 2953.4,326.528 "/>
    <polygon style="fill: #000000" points="2953.4,334.028 2948.4,324.028 2953.4,326.528 2958.4,324.028 "/>
    <polygon style="fill: none; fill-opacity:0; stroke-width: 2; stroke: #000000" points="2953.4,334.028 2948.4,324.028 2953.4,326.528 2958.4,324.028 "/>
  </g>
  <g>
    <polyline style="fill: none; fill-opacity:0; stroke-width: 2; stroke: #000000" points="2767.41,231.372 2804.04,231.372 2804.04,328.717 "/>
    <polygon style="fill: #000000" points="2804.04,336.217 2799.04,326.217 2804.04,328.717 2809.04,326.217 "/>
    <polygon style="fill: none; fill-opacity:0; stroke-width: 2; stroke: #000000" points="2804.04,336.217 2799.04,326.217 2804.04,328.717 2809.04,326.217 "/>
  </g>
</svg>
